<svg width="88" height="31" viewBox="0 0 88 31" fill="none" xmlns="http://www.w3.org/2000/svg">
<path d="M68.4389 19.2508C66.8996 19.2718 65.3848 18.8711 64.065 18.0938L64.4857 16.4514C65.6403 17.1742 66.9801 17.5611 68.3498 17.5674C69.3439 17.6198 70.3199 17.2916 71.0719 16.6518C71.3688 16.3637 71.6018 16.0184 71.7562 15.6377C71.9108 15.2572 71.9837 14.8493 71.9701 14.4398V12.9545H71.9252C71.4856 13.4827 70.9288 13.905 70.2971 14.1893C69.6653 14.4736 68.9757 14.6123 68.2809 14.5946C67.6 14.6031 66.9241 14.4793 66.2919 14.2306C65.66 13.9819 65.0841 13.6131 64.5979 13.1454C64.0961 12.6389 63.702 12.0395 63.4385 11.3822C63.1751 10.725 63.0476 10.0228 63.0635 9.31673C63.0407 7.91519 63.5669 6.55848 64.5335 5.52619C65.0047 5.03807 65.5739 4.65076 66.205 4.3886C66.8361 4.12645 67.5156 3.9951 68.2009 4.00278C68.8999 3.99665 69.5922 4.13766 70.2308 4.4163C70.8696 4.69492 71.4399 5.10469 71.9035 5.61796H71.9477V4.13567H73.714V13.9825C73.799 15.3531 73.36 16.7056 72.4828 17.7759C71.9572 18.2928 71.3239 18.6925 70.6264 18.9476C69.929 19.2026 69.1835 19.3071 68.4412 19.2538L68.4389 19.2508ZM68.4173 5.66861C67.9418 5.6622 67.4702 5.7517 67.0315 5.93156C66.5929 6.11143 66.1965 6.37782 65.8672 6.7142C65.5379 7.05058 65.2826 7.44976 65.1171 7.88698C64.9518 8.32417 64.8797 8.79011 64.9054 9.2558C64.8881 9.74909 64.9707 10.2409 65.1485 10.7027C65.3263 11.1644 65.5958 11.5869 65.9413 11.9458C66.2666 12.2631 66.6532 12.5133 67.0786 12.6817C67.5039 12.8502 67.9593 12.9334 68.418 12.9265C68.9084 12.9379 69.3959 12.8488 69.8493 12.6649C70.3027 12.481 70.712 12.2062 71.051 11.8584C71.39 11.5105 71.6512 11.097 71.8182 10.6445C71.9851 10.192 72.0539 9.71021 72.0203 9.23011C72.035 8.7521 71.9506 8.27609 71.7724 7.83101C71.594 7.38592 71.3254 6.98095 70.9829 6.64067C70.2924 5.99648 69.3707 5.64581 68.418 5.66495L68.4173 5.66861ZM58.1941 15.5697L57.3618 14.79V4.13567H59.1506V14.79L58.1941 15.5697ZM29.3502 14.9199C28.6556 14.9321 27.9655 14.8081 27.3203 14.5554C26.6753 14.3026 26.088 13.9261 25.593 13.448C25.0872 12.9279 24.6919 12.3144 24.4303 11.6432C24.1686 10.9717 24.0459 10.2561 24.0692 9.53768C24.0409 8.08477 24.5729 6.67494 25.5586 5.59007C26.0395 5.08216 26.6234 4.67856 27.2727 4.40521C27.9222 4.13184 28.6227 3.99477 29.3292 4.00278C30.0414 3.99255 30.7462 4.14301 31.3895 4.44256C32.0328 4.74209 32.5973 5.18268 33.0394 5.73029H33.061V4.13567H34.8468V14.79H33.1254V13.1065H33.1029C32.6703 13.681 32.1035 14.1453 31.4502 14.4608C30.7969 14.7764 30.076 14.9338 29.348 14.9199H29.3502ZM29.5269 5.64439C29.0453 5.63833 28.5675 5.72938 28.1232 5.91186C27.6789 6.09435 27.2775 6.3644 26.944 6.70527C26.2284 7.47816 25.8482 8.49426 25.8842 9.53768C25.8583 10.5238 26.2117 11.4835 26.8744 12.2255C27.2099 12.578 27.6179 12.8565 28.0715 13.0428C28.525 13.2289 29.0138 13.3185 29.5051 13.3055C29.9777 13.3074 30.4458 13.2167 30.882 13.0383C31.3181 12.8601 31.7135 12.5979 32.0446 12.2673C32.7586 11.5334 33.1472 10.5519 33.1254 9.53768C33.1596 9.04821 33.0927 8.55692 32.9285 8.09343C32.7645 7.62993 32.5066 7.2037 32.1705 6.84033C31.8344 6.47696 31.4269 6.18392 30.9724 5.97879C30.5181 5.77367 30.0261 5.66067 29.5261 5.6466L29.5269 5.64439ZM79.8483 14.79H78.0594V4.13567H79.8483V5.99459H79.87C80.3067 5.37512 80.8912 4.86978 81.5725 4.52261C82.2539 4.17543 83.0115 3.99698 83.7793 4.00278C84.2989 3.97483 84.8185 4.05797 85.3023 4.24649C85.786 4.43498 86.2222 4.72432 86.5806 5.0945C87.3497 6.04969 87.7289 7.25154 87.6439 8.4658V14.79H85.8554V8.96941C85.9384 8.04661 85.6811 7.12519 85.1302 6.37268C84.8887 6.11998 84.5926 5.92348 84.2637 5.79759C83.9347 5.67169 83.5812 5.61961 83.2291 5.64513C81.1447 5.64513 79.8498 7.11347 79.8498 9.47311V14.79H79.8483ZM43.499 14.79H41.8651L38.1326 4.13567H39.9439L42.6846 12.0978H42.7288L45.1755 4.13567H46.721L49.2172 12.0984H49.262L52.0022 4.13567H53.8134L50.0809 14.79H48.4028L45.9726 7.02243H45.9502L43.499 14.79Z" fill="white"/>
<path d="M8.67054 0.368841L0.411411 16.5449C0.367134 16.6311 0.344614 16.7264 0.345744 16.823C0.346874 16.9195 0.371623 17.0143 0.417907 17.0995C0.46419 17.1847 0.530656 17.2578 0.611711 17.3124C0.692767 17.3672 0.78604 17.4021 0.883687 17.4141C0.905392 17.4141 0.936825 17.42 0.978742 17.4228C1.93745 17.4374 2.88959 17.2655 3.7802 16.9171C5.95741 16.0716 7.94383 14.8144 9.62639 13.2169C11.5679 11.4739 12.7766 10.3389 13.3956 9.6928C13.5786 9.51445 13.744 9.31954 13.8895 9.11064C13.9643 9.00902 14.0063 8.88778 14.0101 8.76255C14.0141 8.6374 13.9796 8.51391 13.9113 8.40803C13.8431 8.30215 13.7442 8.21867 13.6271 8.16842C13.5101 8.11826 13.3805 8.10342 13.2548 8.12607C13.2176 8.13284 13.181 8.14264 13.1456 8.15549C13.1199 8.1646 13.0949 8.17545 13.0707 8.18777C12.9869 8.22891 12.9137 8.28836 12.8569 8.36152C12.7999 8.43468 12.7611 8.51964 12.7429 8.60989C12.687 8.6755 12.6082 8.76064 12.5064 8.86539C11.9121 9.48356 10.7214 10.6025 8.80384 12.3263C7.23835 13.8147 5.39012 14.9871 3.36405 15.7769C2.91554 15.9385 2.45349 16.0613 1.98317 16.144L9.76707 0.906249C9.80951 0.83512 9.83667 0.75618 9.84674 0.674342C9.85689 0.592495 9.84969 0.509494 9.82574 0.430476C9.80178 0.351458 9.7616 0.278102 9.70754 0.214961C9.65347 0.15182 9.58682 0.100238 9.51166 0.0634103C9.43642 0.0265831 9.35432 0.00529647 9.2704 0.000868701C9.18648 -0.0035582 9.10256 0.00896835 9.02376 0.0376734C8.94496 0.0663775 8.8731 0.110647 8.81243 0.167738C8.75177 0.22483 8.703 0.292792 8.67054 0.368841Z" fill="white"/>
<path d="M8.97378 0.101478C8.8285 0.173123 8.71803 0.298361 8.66674 0.44974C8.61536 0.601128 8.62725 0.766297 8.69989 0.909067L16.4838 16.1461C16.0139 16.0635 15.5523 15.9405 15.1044 15.779C13.0791 14.9891 11.2317 13.8167 9.66685 12.3283C7.74036 10.6038 6.55106 9.48125 5.96054 8.86672C5.86074 8.76154 5.78191 8.6764 5.72403 8.61123C5.70627 8.5195 5.667 8.43315 5.60933 8.35877C5.55165 8.28457 5.47715 8.22443 5.39171 8.1832C5.36744 8.17105 5.34245 8.16021 5.31687 8.15092C5.28137 8.13816 5.24479 8.12827 5.2076 8.12159C5.08193 8.09876 4.95217 8.11334 4.83505 8.1635C4.71792 8.21367 4.61879 8.29707 4.55042 8.40303C4.48206 8.50891 4.44759 8.63249 4.45147 8.75781C4.45534 8.88313 4.49738 9.00445 4.57216 9.10608C4.71762 9.31505 4.88303 9.51006 5.06614 9.68832C5.6866 10.3329 6.89535 11.4686 8.83683 13.2123C10.5205 14.8094 12.5079 16.0659 14.6861 16.9104C15.5765 17.2596 16.5286 17.4327 17.4875 17.4191C17.5193 17.4185 17.5511 17.4156 17.5825 17.4104C17.68 17.3982 17.7732 17.3635 17.8541 17.3087C17.9352 17.254 18.0015 17.1811 18.0478 17.0959C18.0941 17.0109 18.1188 16.9162 18.1201 16.8198C18.1213 16.7233 18.099 16.628 18.0548 16.5418L9.79711 0.369455C9.76118 0.298665 9.71137 0.235534 9.65044 0.183689C9.58961 0.131843 9.51888 0.0923032 9.44233 0.067336C9.36588 0.0423688 9.28508 0.0324684 9.20472 0.0382014C9.12427 0.0439353 9.04581 0.0659232 8.97378 0.101478Z" fill="white"/>
<path d="M6.66404 27.1306H3.95757L3.4384 28.5435H2.80859L4.97888 22.6709H5.65124L7.81302 28.5435H7.18321L6.66404 27.1306ZM6.48532 26.637L5.3108 23.4199L4.1363 26.637H6.48532ZM17.4879 22.6028V28.5435H16.2964V24.6795L14.7048 28.5435H13.8026L12.2026 24.6795V28.5435H11.0111V22.6028H12.3643L14.2537 27.02L16.1431 22.6028H17.4879ZM23.1767 23.8284L20.2574 30.7733H18.9893L20.0106 28.4243L18.1212 23.8284H19.4574L20.6745 27.1221L21.9086 23.8284H23.1767ZM26.4318 23.7603C26.9936 23.7603 27.4475 23.939 27.7936 24.2965C28.1398 24.6483 28.3128 25.142 28.3128 25.7774V28.5435H27.1213V25.9391C27.1213 25.5646 27.0276 25.2781 26.8404 25.0795C26.6531 24.8753 26.3978 24.7731 26.0745 24.7731C25.7454 24.7731 25.4843 24.8753 25.2914 25.0795C25.1042 25.2781 25.0106 25.5646 25.0106 25.9391V28.5435H23.819V23.8284H25.0106V24.4156C25.1694 24.2114 25.3708 24.0525 25.6148 23.939C25.8644 23.8199 26.1369 23.7603 26.4318 23.7603ZM29.1394 26.1689C29.1394 25.6923 29.2331 25.2696 29.4204 24.9008C29.6133 24.5319 29.8714 24.2482 30.1948 24.0497C30.5239 23.8511 30.8899 23.7518 31.2927 23.7518C31.6445 23.7518 31.9509 23.8227 32.2119 23.9645C32.4786 24.1064 32.6914 24.2851 32.8503 24.5008V23.8284H34.0503V28.5435H32.8503V27.8541C32.697 28.0754 32.4843 28.2598 32.2119 28.4072C31.9453 28.5491 31.636 28.62 31.2842 28.62C30.887 28.62 30.5239 28.5179 30.1948 28.3137C29.8714 28.1094 29.6133 27.8228 29.4204 27.4541C29.2331 27.0796 29.1394 26.6512 29.1394 26.1689ZM32.8503 26.1859C32.8503 25.8965 32.7935 25.6497 32.68 25.4454C32.5666 25.2355 32.4133 25.0767 32.2204 24.9689C32.0276 24.8554 31.8204 24.7986 31.5991 24.7986C31.3779 24.7986 31.1736 24.8525 30.9863 24.9603C30.7991 25.0682 30.6459 25.227 30.5268 25.4369C30.4133 25.6412 30.3565 25.8852 30.3565 26.1689C30.3565 26.4526 30.4133 26.7023 30.5268 26.9178C30.6459 27.1278 30.7991 27.2895 30.9863 27.403C31.1792 27.5165 31.3835 27.5732 31.5991 27.5732C31.8204 27.5732 32.0276 27.5193 32.2204 27.4115C32.4133 27.298 32.5666 27.1391 32.68 26.9348C32.7935 26.7249 32.8503 26.4753 32.8503 26.1859ZM37.1801 27.4456L38.3715 23.8284H39.6397L37.8949 28.5435H36.4481L34.7119 23.8284H35.9885L37.1801 27.4456ZM40.9132 23.2667C40.7033 23.2667 40.5274 23.2014 40.3856 23.0709C40.2494 22.9347 40.1813 22.7673 40.1813 22.5688C40.1813 22.3702 40.2494 22.2057 40.3856 22.0751C40.5274 21.939 40.7033 21.8708 40.9132 21.8708C41.1231 21.8708 41.2962 21.939 41.4324 22.0751C41.5743 22.2057 41.6452 22.3702 41.6452 22.5688C41.6452 22.7673 41.5743 22.9347 41.4324 23.0709C41.2962 23.2014 41.1231 23.2667 40.9132 23.2667ZM41.5005 23.8284V28.5435H40.3089V23.8284H41.5005ZM44.8345 26.22C44.8345 25.7376 44.9309 25.3178 45.1238 24.9603C45.3168 24.5972 45.5835 24.3192 45.9239 24.1263C46.2643 23.9277 46.653 23.8284 47.0899 23.8284C47.6629 23.8284 48.1339 23.9703 48.5027 24.254C48.8772 24.5377 49.1183 24.9234 49.2262 25.4114H48.5878C48.5084 25.0767 48.3353 24.8156 48.0686 24.6284C47.8077 24.4355 47.4814 24.339 47.0899 24.339C46.7778 24.339 46.497 24.41 46.2473 24.5518C45.9977 24.6937 45.799 24.9064 45.6515 25.1901C45.5097 25.4682 45.4388 25.8114 45.4388 26.22C45.4388 26.6285 45.5097 26.9746 45.6515 27.2583C45.799 27.542 45.9977 27.7548 46.2473 27.8966C46.497 28.0385 46.7778 28.1094 47.0899 28.1094C47.4814 28.1094 47.8077 28.0157 48.0686 27.8286C48.3353 27.6356 48.5084 27.3689 48.5878 27.0285H49.2262C49.1183 27.5051 48.8772 27.8881 48.5027 28.1775C48.1283 28.4669 47.6573 28.6115 47.0899 28.6115C46.653 28.6115 46.2643 28.5151 45.9239 28.3222C45.5835 28.1235 45.3168 27.8456 45.1238 27.4881C44.9309 27.125 44.8345 26.7023 44.8345 26.22ZM52.3606 28.6115C51.9236 28.6115 51.5293 28.5151 51.1775 28.3222C50.8314 28.1235 50.5562 27.8456 50.3519 27.4881C50.1534 27.125 50.0541 26.7023 50.0541 26.22C50.0541 25.7376 50.1562 25.3178 50.3605 24.9603C50.5647 24.5972 50.8428 24.3192 51.1945 24.1263C51.5464 23.9277 51.9406 23.8284 52.3776 23.8284C52.8145 23.8284 53.2088 23.9277 53.5606 24.1263C53.918 24.3192 54.1961 24.5972 54.3947 24.9603C54.5989 25.3178 54.7011 25.7376 54.7011 26.22C54.7011 26.6966 54.5989 27.1165 54.3947 27.4796C54.1904 27.8427 53.9095 28.1235 53.5521 28.3222C53.1946 28.5151 52.7975 28.6115 52.3606 28.6115ZM52.3606 28.0924C52.6669 28.0924 52.9506 28.0243 53.2116 27.8881C53.4726 27.7463 53.6826 27.5363 53.8415 27.2583C54.006 26.9746 54.0883 26.6285 54.0883 26.22C54.0883 25.8114 54.0088 25.4682 53.85 25.1901C53.6911 24.9064 53.4812 24.6965 53.2201 24.5603C52.9591 24.4185 52.6754 24.3475 52.3691 24.3475C52.0627 24.3475 51.779 24.4185 51.518 24.5603C51.2569 24.6965 51.047 24.9064 50.8882 25.1901C50.7349 25.4682 50.6584 25.8114 50.6584 26.22C50.6584 26.6285 50.7349 26.9746 50.8882 27.2583C51.047 27.5363 51.2542 27.7463 51.5095 27.8881C51.7705 28.0243 52.0541 28.0924 52.3606 28.0924ZM61.3191 23.8114C61.8639 23.8114 62.3064 23.9844 62.6469 24.3305C62.993 24.671 63.166 25.1675 63.166 25.8199V28.5435H62.5787V25.888C62.5787 25.383 62.4568 24.9972 62.2128 24.7306C61.9688 24.4639 61.6369 24.3305 61.217 24.3305C60.7801 24.3305 60.4312 24.4752 60.1702 24.7646C59.9091 25.054 59.7787 25.4738 59.7787 26.0242V28.5435H59.1914V25.888C59.1914 25.383 59.0694 24.9972 58.8255 24.7306C58.5815 24.4639 58.2467 24.3305 57.8212 24.3305C57.3843 24.3305 57.0353 24.4752 56.7743 24.7646C56.5133 25.054 56.3828 25.4738 56.3828 26.0242V28.5435H55.787V23.8965H56.3828V24.6965C56.5303 24.4071 56.7403 24.1887 57.0126 24.0412C57.2849 23.888 57.5885 23.8114 57.9233 23.8114C58.3262 23.8114 58.6779 23.9079 58.9786 24.1007C59.2851 24.2936 59.5063 24.5773 59.6425 24.9518C59.7673 24.5831 59.9801 24.3021 60.2808 24.1093C60.5872 23.9106 60.9333 23.8114 61.3191 23.8114ZM65.0764 24.9178C65.2239 24.6057 65.4565 24.3475 65.7743 24.1433C66.0977 23.9334 66.4807 23.8284 66.9233 23.8284C67.3432 23.8284 67.7205 23.9277 68.0552 24.1263C68.3957 24.3192 68.6595 24.5972 68.8467 24.9603C69.0396 25.3178 69.1361 25.7349 69.1361 26.2115C69.1361 26.688 69.0396 27.108 68.8467 27.4711C68.6595 27.8342 68.3957 28.115 68.0552 28.3137C67.7205 28.5122 67.3432 28.6115 66.9233 28.6115C66.4864 28.6115 66.1062 28.5094 65.7828 28.3052C65.4594 28.0952 65.2239 27.8342 65.0764 27.5221V30.7392H64.4891V23.8965H65.0764V24.9178ZM68.5318 26.2115C68.5318 25.8256 68.4552 25.4937 68.302 25.2157C68.1545 24.932 67.9503 24.7164 67.6892 24.5688C67.4283 24.4213 67.1332 24.3475 66.8041 24.3475C66.4864 24.3475 66.1942 24.4242 65.9275 24.5773C65.6665 24.7306 65.4594 24.949 65.3062 25.2327C65.153 25.5164 65.0764 25.8455 65.0764 26.22C65.0764 26.5945 65.153 26.9236 65.3062 27.2073C65.4594 27.491 65.6665 27.7094 65.9275 27.8626C66.1942 28.0157 66.4864 28.0924 66.8041 28.0924C67.1332 28.0924 67.4283 28.0186 67.6892 27.8711C67.9503 27.7179 68.1545 27.4995 68.302 27.2158C68.4552 26.9263 68.5318 26.5916 68.5318 26.2115ZM69.96 26.2115C69.96 25.7349 70.0536 25.3178 70.2409 24.9603C70.4338 24.5972 70.6976 24.3192 71.0324 24.1263C71.3728 23.9277 71.7558 23.8284 72.1813 23.8284C72.6239 23.8284 73.004 23.9305 73.3219 24.1348C73.6452 24.339 73.8779 24.6001 74.0197 24.9178V23.8965H74.6155V28.5435H74.0197V27.5136C73.8722 27.8313 73.6367 28.0952 73.3133 28.3052C72.9955 28.5094 72.6154 28.6115 72.1728 28.6115C71.753 28.6115 71.3728 28.5122 71.0324 28.3137C70.6976 28.115 70.4338 27.8342 70.2409 27.4711C70.0536 27.108 69.96 26.688 69.96 26.2115ZM74.0197 26.22C74.0197 25.8455 73.9432 25.5164 73.7899 25.2327C73.6367 24.949 73.4268 24.7306 73.1601 24.5773C72.8991 24.4242 72.6098 24.3475 72.292 24.3475C71.9629 24.3475 71.6679 24.4213 71.4069 24.5688C71.1459 24.7164 70.9387 24.932 70.7856 25.2157C70.638 25.4937 70.5643 25.8256 70.5643 26.2115C70.5643 26.5916 70.638 26.9263 70.7856 27.2158C70.9387 27.4995 71.1459 27.7179 71.4069 27.8711C71.6679 28.0186 71.9629 28.0924 72.292 28.0924C72.6098 28.0924 72.8991 28.0157 73.1601 27.8626C73.4268 27.7094 73.6367 27.491 73.7899 27.2073C73.9432 26.9236 74.0197 26.5945 74.0197 26.22ZM78.1544 23.8114C78.7104 23.8114 79.1643 23.9844 79.5161 24.3305C79.8679 24.671 80.0438 25.1675 80.0438 25.8199V28.5435H79.4565V25.888C79.4565 25.383 79.3288 24.9972 79.0735 24.7306C78.8239 24.4639 78.4806 24.3305 78.0437 24.3305C77.5955 24.3305 77.238 24.4724 76.9713 24.7561C76.7046 25.0398 76.5713 25.4568 76.5713 26.0072V28.5435H75.9756V23.8965H76.5713V24.688C76.7189 24.4043 76.9317 24.1887 77.2096 24.0412C77.4877 23.888 77.8026 23.8114 78.1544 23.8114ZM85.1914 23.8965L82.4338 30.7307H81.8125L82.7146 28.5179L80.8082 23.8965H81.4635L83.0465 27.8626L84.5786 23.8965H85.1914Z" fill="white"/>
</svg>
